<svg width="39" height="60" viewBox="0 0 39 62" fill="none" xmlns="http://www.w3.org/2000/svg">
    <g filter="url(#filter0_i_8331_2)">
        <path fill-rule="evenodd" clip-rule="evenodd"
            d="M20.4781 6.27745V10.9269C20.4781 11.3065 20.7082 11.6483 21.0599 11.7912V11.7912C21.4306 11.9415 21.9154 12.3186 22.3952 12.8298C23.032 13.5079 23.1886 13.7699 23.4059 14.5209C23.6455 15.3485 23.6631 15.71 23.6631 19.7758V23.1421C23.6631 23.6944 24.1109 24.1421 24.6631 24.1421H30.7186H36.7603C37.318 24.1421 37.7679 23.686 37.7603 23.1284L37.7171 19.9909C37.6563 15.5753 37.5956 15.0216 36.9391 12.8979C34.7751 5.89711 28.4957 1.00353 21.6725 1.00052L21.4785 1.00044C20.926 1.0002 20.4781 1.44798 20.4781 2.00044V6.27745ZM1.00049 35.8112C1.00098 46.3183 1.01764 46.5913 1.80644 49.1083C3.77336 55.3837 8.74148 59.8312 14.9041 60.8332C16.6438 61.116 23.4183 61.0194 24.7657 60.6924C30.5793 59.2819 35.1576 54.9124 36.945 49.0685C37.6964 46.6118 37.6701 47.048 37.7182 36.2678L37.7579 27.3719C37.7604 26.8161 37.3091 26.3648 36.7532 26.3675L30.6311 26.3964L24.0842 26.4274C23.7361 26.4291 23.4292 26.6559 23.3255 26.9881V26.9881C23.0977 27.7176 22.0659 28.9116 21.3101 29.3204C19.1671 30.4794 16.3456 29.4041 15.4451 27.0855L15.413 27.0029C15.2637 26.6182 14.8935 26.3648 14.4808 26.3648H8.08266H2.00005C1.44775 26.3648 1.00002 26.8125 1.00005 27.3648L1.00049 35.8112Z"
            fill="url(#paint0_radial_8331_2)" />
    </g>
    <path fill-rule="evenodd" clip-rule="evenodd"
        d="M20.4781 6.27745V10.9269C20.4781 11.3065 20.7082 11.6483 21.0599 11.7912V11.7912C21.4306 11.9415 21.9154 12.3186 22.3952 12.8298C23.032 13.5079 23.1886 13.7699 23.4059 14.5209C23.6455 15.3485 23.6631 15.71 23.6631 19.7758V23.1421C23.6631 23.6944 24.1109 24.1421 24.6631 24.1421H30.7186H36.7603C37.318 24.1421 37.7679 23.686 37.7603 23.1284L37.7171 19.9909C37.6563 15.5753 37.5956 15.0216 36.9391 12.8979C34.7751 5.89711 28.4957 1.00353 21.6725 1.00052L21.4785 1.00044C20.926 1.0002 20.4781 1.44798 20.4781 2.00044V6.27745ZM1.00049 35.8112C1.00098 46.3183 1.01764 46.5913 1.80644 49.1083C3.77336 55.3837 8.74148 59.8312 14.9041 60.8332C16.6438 61.116 23.4183 61.0194 24.7657 60.6924C30.5793 59.2819 35.1576 54.9124 36.945 49.0685C37.6964 46.6118 37.6701 47.048 37.7182 36.2678L37.7579 27.3719C37.7604 26.8161 37.3091 26.3648 36.7532 26.3675L30.6311 26.3964L24.0842 26.4274C23.7361 26.4291 23.4292 26.6559 23.3255 26.9881V26.9881C23.0977 27.7176 22.0659 28.9116 21.3101 29.3204C19.1671 30.4794 16.3456 29.4041 15.4451 27.0855L15.413 27.0029C15.2637 26.6182 14.8935 26.3648 14.4808 26.3648H8.08266H2.00005C1.44775 26.3648 1.00002 26.8125 1.00005 27.3648L1.00049 35.8112Z"
        stroke="url(#paint1_radial_8331_2)" />
    <g filter="url(#filter1_i_8331_2)">
        <path
            d="M18.4189 10.9609V6.29653V2.00044C18.4189 1.44798 17.971 1.0002 17.4185 1.00044L17.216 1.00053C10.3442 1.00354 4.02008 5.91482 1.84064 12.941C1.17947 15.0723 1.11828 15.6281 1.05709 20.0596L1.01358 23.212C1.00589 23.7696 1.4558 24.2258 2.01348 24.2258H8.10544H14.2112C14.7635 24.2258 15.2112 23.7781 15.2112 23.2258V19.8437C15.2112 15.7632 15.2289 15.4004 15.4703 14.5698C15.6891 13.8161 15.8468 13.5531 16.4881 12.8726C16.9714 12.3595 17.4596 11.9811 17.8329 11.8302C18.1871 11.6869 18.4189 11.343 18.4189 10.9609Z"
            fill="url(#paint2_radial_8331_2)" />
    </g>
    <path
        d="M18.4189 10.9609V6.29653V2.00044C18.4189 1.44798 17.971 1.0002 17.4185 1.00044L17.216 1.00053C10.3442 1.00354 4.02008 5.91482 1.84064 12.941C1.17947 15.0723 1.11828 15.6281 1.05709 20.0596L1.01358 23.212C1.00589 23.7696 1.4558 24.2258 2.01348 24.2258H8.10544H14.2112C14.7635 24.2258 15.2112 23.7781 15.2112 23.2258V19.8437C15.2112 15.7632 15.2289 15.4004 15.4703 14.5698C15.6891 13.8161 15.8468 13.5531 16.4881 12.8726C16.9714 12.3595 17.4596 11.9811 17.8329 11.8302C18.1871 11.6869 18.4189 11.343 18.4189 10.9609Z"
        stroke="url(#paint3_radial_8331_2)" />
    <defs>
        <filter id="filter0_i_8331_2" x="0.5" y="0.5" width="37.7607" height="61"
            filterUnits="userSpaceOnUse" color-interpolation-filters="sRGB">
            <feFlood flood-opacity="0" result="BackgroundImageFix" />
            <feBlend mode="normal" in="SourceGraphic" in2="BackgroundImageFix" result="shape" />
            <feColorMatrix in="SourceAlpha" type="matrix"
                values="0 0 0 0 0 0 0 0 0 0 0 0 0 0 0 0 0 0 127 0" result="hardAlpha" />
            <feMorphology radius="3" operator="erode" in="SourceAlpha"
                result="effect1_innerShadow_8331_2" />
            <feOffset />
            <feGaussianBlur stdDeviation="4.85" />
            <feComposite in2="hardAlpha" operator="arithmetic" k2="-1" k3="1" />
            <feColorMatrix type="matrix"
                values="0 0 0 0 0 0 0 0 0 0.764706 0 0 0 0 0.572549 0 0 0 0.55 0" />
            <feBlend mode="normal" in2="shape" result="effect1_innerShadow_8331_2" />
        </filter>
        <filter id="filter1_i_8331_2" x="0.513672" y="0.5" width="18.4053" height="24.2256"
            filterUnits="userSpaceOnUse" color-interpolation-filters="sRGB">
            <feFlood flood-opacity="0" result="BackgroundImageFix" />
            <feBlend mode="normal" in="SourceGraphic" in2="BackgroundImageFix" result="shape" />
            <feColorMatrix in="SourceAlpha" type="matrix"
                values="0 0 0 0 0 0 0 0 0 0 0 0 0 0 0 0 0 0 127 0" result="hardAlpha" />
            <feMorphology radius="3" operator="erode" in="SourceAlpha"
                result="effect1_innerShadow_8331_2" />
            <feOffset />
            <feGaussianBlur stdDeviation="4.85" />
            <feComposite in2="hardAlpha" operator="arithmetic" k2="-1" k3="1" />
            <feColorMatrix type="matrix"
                values="0 0 0 0 0 0 0 0 0 0.764706 0 0 0 0 0.572549 0 0 0 0.55 0" />
            <feBlend mode="normal" in2="shape" result="effect1_innerShadow_8331_2" />
        </filter>
        <radialGradient id="paint0_radial_8331_2" cx="0" cy="0" r="1" gradientUnits="userSpaceOnUse"
            gradientTransform="translate(19.3871 31) rotate(53.427) scale(47.3168 46.1134)">
            <stop stop-color="#027255" />
            <stop offset="1" stop-color="#035B45" />
        </radialGradient>
        <radialGradient id="paint1_radial_8331_2" cx="0" cy="0" r="1" gradientUnits="userSpaceOnUse"
            gradientTransform="translate(19.3871 31) rotate(50.4753) scale(31.1143 397.436)">
            <stop stop-color="#00C392" />
            <stop offset="1" stop-color="#00C392" stop-opacity="0" />
        </radialGradient>
        <radialGradient id="paint2_radial_8331_2" cx="0" cy="0" r="1" gradientUnits="userSpaceOnUse"
            gradientTransform="translate(9.70927 12.6129) rotate(132.236) scale(19.8677 20.1374)">
            <stop stop-color="#027255" />
            <stop offset="1" stop-color="#035B45" />
        </radialGradient>
        <radialGradient id="paint3_radial_8331_2" cx="0" cy="0" r="1" gradientUnits="userSpaceOnUse"
            gradientTransform="translate(9.70927 12.6129) rotate(135.274) scale(13.2018 171.752)">
            <stop stop-color="#00C392" />
            <stop offset="1" stop-color="#00C392" stop-opacity="0" />
        </radialGradient>
    </defs>
</svg>
    