<svg width="40" height="60" viewBox="0 0 41 61" fill="none" xmlns="http://www.w3.org/2000/svg">
    <path
        d="M1 17.5646L10.129 8.78239C17.7897 1.41264 19.3178 0 19.629 0H20V2.04196V4.08379L10.5 13.2216L1 22.3594V19.962V17.5646Z"
        fill="#00F8B9" />
    <path
        d="M2.8903 9.48041C5.16194 5.11521 9.45028 1.76249 14.2731 0.580972C14.9401 0.417647 15.5134 0.3098 15.5474 0.341558C15.622 0.411554 1.51583 13.9993 1.36855 13.9993C1.08894 13.9993 2.09823 11.0022 2.8903 9.48041Z"
        fill="#00F8B9" />
    <path
        d="M3.96454 22.8465C3.96454 22.7933 7.55716 19.2934 11.9482 15.0691C16.3392 10.8448 19.9472 7.38854 19.9659 7.38854C19.9846 7.38854 20 8.07775 20 8.92018V10.4518L19.2746 10.741C17.7242 11.3592 16.6171 12.9052 16.5237 14.5827L16.4731 15.49L12.6116 19.2167L8.74998 22.9434H6.35719C5.0412 22.9434 3.96454 22.8998 3.96454 22.8465Z"
        fill="#00F8B9" />
    <path
        d="M12.1201 22.9434L14.2747 20.8676L15.9652 18.9595L16.0026 20.8676C16.0233 21.917 16.0099 22.8511 15.9731 22.9434C15.9223 23.0708 15.8593 22.9434 14.2452 22.9434H12.1201Z"
        fill="#00F8B9" />
    <g filter="url(#filter0_i_8331_2)">
        <path fill-rule="evenodd" clip-rule="evenodd"
            d="M21.657 6.18949V10.7196C21.657 11.1163 21.9028 11.4715 22.2741 11.6113V11.6113C22.6672 11.7592 23.1813 12.1299 23.6902 12.6326C24.3655 13.2994 24.5316 13.557 24.762 14.2955C25.0161 15.1094 25.0349 15.4648 25.0349 19.4629V22.7564C25.0349 23.3087 25.4826 23.7564 26.0349 23.7564H32.5174H38.9851C39.5431 23.7564 39.9932 23.2996 39.9849 22.7416L39.9395 19.6744C39.875 15.3324 39.8106 14.7879 39.1143 12.6996C36.8193 5.81549 30.1599 1.00347 22.9237 1.00051L22.6574 1.00041C22.1049 1.00018 21.657 1.44796 21.657 2.00041V6.18949ZM1.00052 35.231C1.00104 45.563 1.01871 45.8314 1.85525 48.3064C3.94122 54.4773 9.21005 58.8506 15.7457 59.836C17.5907 60.1141 24.7751 60.0191 26.2041 59.6975C32.3696 58.3105 37.2251 54.0138 39.1206 48.2674C39.9175 45.8516 39.8896 46.2805 39.9406 35.68L39.9827 26.9492C39.9853 26.3933 39.5342 25.942 38.9783 25.9444L32.4246 25.9732L25.4404 26.0038C25.0942 26.0053 24.7873 26.2268 24.6768 26.5549V26.5549C24.4352 27.2723 23.341 28.4464 22.5394 28.8484C20.2667 29.9881 17.2745 28.9307 16.3194 26.6507L16.2797 26.5558C16.124 26.184 15.7604 25.942 15.3573 25.942H8.51135H2.00006C1.44775 25.942 1.00003 26.3898 1.00006 26.9421L1.00052 35.231Z"
            fill="url(#paint0_radial_8331_2)" />
    </g>
    <path fill-rule="evenodd" clip-rule="evenodd"
        d="M21.657 6.18949V10.7196C21.657 11.1163 21.9028 11.4715 22.2741 11.6113V11.6113C22.6672 11.7592 23.1813 12.1299 23.6902 12.6326C24.3655 13.2994 24.5316 13.557 24.762 14.2955C25.0161 15.1094 25.0349 15.4648 25.0349 19.4629V22.7564C25.0349 23.3087 25.4826 23.7564 26.0349 23.7564H32.5174H38.9851C39.5431 23.7564 39.9932 23.2996 39.9849 22.7416L39.9395 19.6744C39.875 15.3324 39.8106 14.7879 39.1143 12.6996C36.8193 5.81549 30.1599 1.00347 22.9237 1.00051L22.6574 1.00041C22.1049 1.00018 21.657 1.44796 21.657 2.00041V6.18949ZM1.00052 35.231C1.00104 45.563 1.01871 45.8314 1.85525 48.3064C3.94122 54.4773 9.21005 58.8506 15.7457 59.836C17.5907 60.1141 24.7751 60.0191 26.2041 59.6975C32.3696 58.3105 37.2251 54.0138 39.1206 48.2674C39.9175 45.8516 39.8896 46.2805 39.9406 35.68L39.9827 26.9492C39.9853 26.3933 39.5342 25.942 38.9783 25.9444L32.4246 25.9732L25.4404 26.0038C25.0942 26.0053 24.7873 26.2268 24.6768 26.5549V26.5549C24.4352 27.2723 23.341 28.4464 22.5394 28.8484C20.2667 29.9881 17.2745 28.9307 16.3194 26.6507L16.2797 26.5558C16.124 26.184 15.7604 25.942 15.3573 25.942H8.51135H2.00006C1.44775 25.942 1.00003 26.3898 1.00006 26.9421L1.00052 35.231Z"
        stroke="url(#paint1_radial_8331_2)" />
    <defs>
        <filter id="filter0_i_8331_2" x="0.5" y="0.5" width="39.9854" height="60"
            filterUnits="userSpaceOnUse" color-interpolation-filters="sRGB">
            <feFlood flood-opacity="0" result="BackgroundImageFix" />
            <feBlend mode="normal" in="SourceGraphic" in2="BackgroundImageFix" result="shape" />
            <feColorMatrix in="SourceAlpha" type="matrix"
                values="0 0 0 0 0 0 0 0 0 0 0 0 0 0 0 0 0 0 127 0" result="hardAlpha" />
            <feMorphology radius="3" operator="erode" in="SourceAlpha"
                result="effect1_innerShadow_8331_2" />
            <feOffset />
            <feGaussianBlur stdDeviation="4.85" />
            <feComposite in2="hardAlpha" operator="arithmetic" k2="-1" k3="1" />
            <feColorMatrix type="matrix"
                values="0 0 0 0 0.754167 0 0 0 0 0.754167 0 0 0 0 0.754167 0 0 0 0.55 0" />
            <feBlend mode="normal" in2="shape" result="effect1_innerShadow_8331_2" />
        </filter>
        <radialGradient id="paint0_radial_8331_2" cx="0" cy="0" r="1" gradientUnits="userSpaceOnUse"
            gradientTransform="translate(20.5 30.5) rotate(51.334) scale(47.8568 47.5467)">
            <stop stop-color="#505050" stop-opacity="0.65" />
            <stop offset="1" stop-color="#585858" stop-opacity="0.66" />
        </radialGradient>
        <radialGradient id="paint1_radial_8331_2" cx="0" cy="0" r="1" gradientUnits="userSpaceOnUse"
            gradientTransform="translate(20.5 30.5) rotate(48.3363) scale(31.5905 408.218)">
            <stop stop-color="#D0D0D0" />
            <stop offset="1" stop-color="#BDBDBD" stop-opacity="0" />
        </radialGradient>
    </defs>
</svg>
    